<?xml version="1.0" standalone="no"?>
<!DOCTYPE svg PUBLIC "-//W3C//DTD SVG 20010904//EN"
 "http://www.w3.org/TR/2001/REC-SVG-20010904/DTD/svg10.dtd">
<svg version="1.0" xmlns="http://www.w3.org/2000/svg"
 width="840.000000pt" height="859.000000pt" viewBox="0 0 840.000000 859.000000"
 preserveAspectRatio="xMidYMid meet">
<metadata>
Created by potrace 1.16, written by Peter Selinger 2001-2019
</metadata>
<g transform="translate(0.000000,859.000000) scale(0.100000,-0.100000)"
fill="#000000" stroke="none">
<path d="M2034 7758 c-48 -84 -151 -263 -229 -398 -78 -135 -389 -672 -690
-1195 -302 -522 -654 -1132 -783 -1355 -129 -223 -248 -429 -264 -457 l-30
-53 123 -212 c67 -117 195 -339 284 -493 89 -154 357 -617 595 -1030 533 -923
551 -953 845 -1462 l238 -413 2082 0 2083 0 180 313 c163 283 320 554 1145
1982 143 248 372 645 509 882 l250 433 -100 172 c-83 145 -1158 2008 -1372
2378 -246 426 -567 982 -588 1018 l-24 42 -2083 0 -2083 0 -88 -152z"/>
</g>
</svg>
